<svg xmlns="http://www.w3.org/2000/svg" viewBox="0 0 64 64" role="img" aria-label="NC favicon">
  <defs>
    <linearGradient id="bg" x1="0" x2="1" y1="0" y2="1">
      <stop offset="0%" stop-color="#1f6d5a"/>
      <stop offset="100%" stop-color="#165647"/>
    </linearGradient>
  </defs>
  <rect x="2" y="2" width="60" height="60" rx="16" fill="url(#bg)"/>
  <path d="M19 45V19h5l16 18V19h5v26h-5L24 27v18z" fill="#f7efe3"/>
  <path d="M45 40.5c-2.2 3.1-5.7 4.9-10 4.9-7.2 0-12.4-5.4-12.4-13.4S27.8 18.6 35 18.6c4.2 0 7.7 1.8 10 4.9l-4 2.4c-1.4-1.8-3.4-2.8-6-2.8-4.5 0-7.6 3.5-7.6 8.9s3.1 8.9 7.6 8.9c2.6 0 4.6-1 6-2.8z" fill="#d4e6dd"/>
</svg>
